<?xml version="1.0" standalone="no"?>
<!DOCTYPE svg PUBLIC "-//W3C//DTD SVG 20010904//EN"
 "http://www.w3.org/TR/2001/REC-SVG-20010904/DTD/svg10.dtd">
<svg version="1.0" xmlns="http://www.w3.org/2000/svg"
 width="967.000000pt" height="967.000000pt" viewBox="0 0 967.000000 967.000000"
 preserveAspectRatio="xMidYMid meet">
<metadata>
Created by potrace 1.11, written by Peter Selinger 2001-2013
</metadata>
<g transform="translate(0.000000,967.000000) scale(0.100000,-0.100000)"
fill="#000000" stroke="none">
<path d="M4797 8844 c-1 -1 -42 -5 -92 -7 -49 -3 -101 -8 -115 -11 -14 -4 -43
-8 -65 -10 -111 -12 -317 -81 -482 -162 -108 -53 -315 -183 -387 -244 -408
-343 -688 -756 -883 -1300 -61 -171 -108 -344 -138 -507 -3 -16 -7 -39 -10
-53 -2 -13 -7 -42 -10 -65 -4 -22 -8 -51 -10 -65 -5 -33 -13 -100 -20 -180 -3
-36 -8 -87 -10 -115 -6 -61 -6 -422 -1 -485 3 -25 7 -82 11 -126 3 -45 8 -90
10 -100 1 -11 7 -48 11 -84 4 -36 9 -67 9 -70 1 -3 5 -27 10 -55 11 -74 41
-207 66 -300 6 -22 13 -51 16 -64 6 -24 88 -263 133 -386 92 -254 363 -819
487 -1017 13 -21 23 -40 23 -42 0 -3 46 -78 101 -168 56 -90 109 -175 118
-190 36 -60 213 -320 282 -415 41 -56 81 -111 89 -123 17 -25 156 -208 197
-260 74 -94 470 -492 578 -581 333 -275 784 -520 1212 -659 115 -38 268 -81
333 -94 37 -7 131 -25 165 -31 17 -2 40 -7 52 -9 12 -3 50 -7 85 -11 35 -3 83
-8 108 -11 115 -14 397 -19 505 -9 103 9 181 17 215 22 19 2 49 6 65 8 17 2
30 4 30 5 0 1 14 4 30 6 17 3 66 14 110 25 44 12 87 22 95 24 8 2 26 8 40 13
14 5 29 10 33 10 7 0 47 14 92 32 11 5 56 23 100 40 142 57 281 135 453 255
54 37 256 232 307 295 39 48 121 165 151 215 78 131 190 408 208 515 3 19 8
45 10 58 35 171 41 569 11 682 -2 8 -6 33 -9 55 -10 84 -62 288 -93 365 -4 8
-7 17 -8 20 -24 91 -176 421 -226 492 -11 14 -19 29 -19 32 0 9 -93 151 -102
154 -4 2 -8 8 -8 13 0 8 -85 129 -122 174 -5 5 -16 20 -26 31 -160 197 -419
452 -582 574 -19 14 -54 41 -79 60 -43 33 -83 62 -119 85 -9 6 -21 14 -26 18
-56 43 -288 180 -401 237 -27 14 -56 31 -63 38 -7 6 -20 12 -28 12 -8 0 -37
11 -64 25 -136 69 -472 189 -645 230 -16 4 -39 9 -50 12 -37 9 -110 24 -135
28 -14 2 -65 10 -115 19 -49 8 -110 18 -135 21 -25 3 -52 8 -60 10 -8 2 -40 7
-70 10 -30 3 -66 8 -80 10 -14 2 -54 7 -90 10 -66 7 -92 9 -210 20 -36 3 -87
7 -115 10 -281 25 -927 25 -1216 0 -30 -3 -81 -7 -114 -10 -33 -3 -82 -8 -110
-10 -27 -2 -70 -7 -95 -10 -129 -14 -156 -18 -170 -20 -21 -4 -140 -20 -172
-24 -9 -1 4 -201 17 -271 3 -14 7 -41 9 -60 3 -19 9 -54 14 -77 6 -24 8 -43 5
-43 -3 0 0 -6 6 -13 6 -8 8 -16 5 -19 -3 -4 9 -55 26 -115 18 -59 33 -112 34
-118 1 -5 8 -25 15 -42 13 -33 13 -33 75 -28 33 2 72 7 86 9 24 5 82 11 220
21 36 3 83 7 105 10 22 2 94 7 160 10 66 4 147 8 180 10 90 5 575 5 690 0 182
-9 221 -12 430 -30 58 -5 155 -15 190 -20 168 -22 279 -39 313 -49 9 -3 34 -7
56 -11 21 -3 41 -7 45 -10 4 -2 18 -6 32 -8 48 -9 156 -39 229 -64 41 -14 82
-26 90 -28 37 -9 215 -84 332 -140 37 -18 69 -30 72 -27 3 3 6 0 6 -6 0 -7 5
-12 11 -12 11 0 317 -200 341 -223 7 -7 56 -46 108 -89 156 -125 325 -300 479
-494 19 -25 16 -20 111 -165 189 -287 290 -593 294 -889 1 -58 -3 -101 -18
-195 -36 -217 -142 -418 -300 -564 -21 -20 -44 -41 -51 -47 -30 -30 -185 -128
-251 -159 -74 -35 -194 -79 -249 -90 -16 -3 -34 -7 -40 -9 -18 -5 -119 -25
-149 -30 -163 -28 -473 -25 -621 4 -27 6 -63 12 -80 14 -16 3 -55 9 -85 15
-30 6 -68 14 -85 17 -16 3 -84 22 -150 41 -66 19 -127 36 -135 38 -71 15 -506
209 -555 247 -5 4 -64 43 -130 87 -223 147 -463 359 -624 551 -35 41 -83 98
-106 125 -76 87 -113 132 -213 260 -34 44 -66 85 -70 90 -87 110 -306 434
-372 550 -10 17 -41 71 -70 120 -101 174 -263 513 -329 690 -13 33 -27 69 -32
80 -11 25 -79 218 -124 352 -42 126 -89 318 -110 453 -3 19 -8 49 -10 65 -6
35 -14 104 -22 195 -12 138 -6 461 11 592 8 57 19 132 22 148 2 8 6 34 8 57 3
24 8 47 11 53 4 6 8 21 10 33 15 100 79 316 135 457 12 30 24 64 27 75 3 11
10 25 15 32 5 7 24 43 42 80 108 224 315 491 471 608 28 21 52 41 55 44 19 26
256 154 309 167 9 2 34 8 56 14 22 6 47 12 55 14 191 50 368 41 590 -30 78
-25 222 -103 310 -168 125 -93 214 -183 340 -343 75 -94 201 -323 260 -473 56
-139 118 -338 126 -397 1 -12 7 -37 12 -55 31 -99 71 -410 76 -594 0 -29 6
-57 11 -62 6 -5 37 -15 70 -21 33 -7 67 -14 75 -16 128 -29 171 -40 260 -66
58 -17 114 -35 125 -40 22 -10 210 -78 237 -86 17 -5 18 9 16 213 -1 199 -5
275 -23 444 -6 55 -22 173 -30 220 -3 14 -7 43 -11 64 -3 22 -17 82 -30 135
-13 53 -27 107 -30 121 -14 68 -98 312 -149 434 -9 20 -15 37 -14 38 4 6 -189
377 -202 388 -3 3 -16 23 -29 45 -25 42 -140 206 -150 215 -3 3 -13 15 -22 28
-47 69 -244 274 -343 357 -33 28 -62 53 -65 56 -12 13 -141 101 -215 146 -198
121 -476 228 -648 249 -23 3 -49 8 -57 10 -8 3 -60 8 -115 10 -55 3 -117 6
-138 8 -20 1 -38 1 -40 0z"/>
<path d="M2325 5326 c-222 -119 -571 -355 -681 -461 -12 -11 -48 -44 -82 -73
-126 -109 -283 -276 -425 -451 -47 -58 -127 -171 -127 -179 0 -5 -7 -15 -15
-22 -7 -6 -29 -37 -47 -67 -18 -31 -41 -70 -51 -86 -162 -266 -308 -668 -342
-942 -4 -27 -9 -61 -12 -75 -3 -14 -6 -106 -8 -205 -2 -163 2 -239 21 -360 4
-22 8 -49 9 -60 16 -122 133 -419 226 -575 161 -269 437 -520 747 -678 89 -46
279 -126 322 -137 8 -2 51 -15 96 -28 219 -67 421 -92 744 -92 202 0 262 3
420 21 74 8 231 35 295 50 33 8 67 16 75 18 8 2 35 9 60 16 25 7 52 14 60 15
8 2 47 14 85 26 39 12 75 24 80 25 20 6 172 62 235 88 146 60 380 178 505 254
50 30 105 64 124 75 l34 21 -25 20 c-14 12 -72 60 -131 108 -107 89 -300 276
-392 381 l-50 57 -130 -65 c-146 -73 -421 -182 -510 -201 -5 -1 -53 -13 -105
-27 -52 -14 -113 -28 -135 -32 -22 -5 -47 -10 -55 -12 -8 -2 -28 -6 -45 -8
-38 -6 -105 -16 -128 -21 -92 -17 -370 -23 -484 -11 -177 18 -378 68 -506 126
-61 28 -215 116 -227 130 -3 3 -27 24 -55 46 -70 56 -113 101 -172 180 -49 65
-130 215 -138 253 -2 9 -11 46 -20 82 -23 88 -24 96 -32 165 -53 462 186 1003
647 1465 94 94 176 169 234 215 22 17 44 35 50 40 6 6 52 40 101 75 50 36 96
71 103 77 7 7 17 13 22 13 4 0 30 15 57 33 l49 33 -23 70 c-19 59 -43 139 -58
194 -19 74 -45 181 -49 201 -2 13 -5 24 -6 24 -1 0 -3 11 -5 25 -2 14 -6 39
-10 55 -13 66 -33 187 -34 213 -1 18 -20 14 -86 -22z"/>
<path d="M6071 4675 c-11 -30 -25 -63 -30 -72 -5 -10 -25 -56 -45 -103 -19
-47 -43 -103 -52 -125 -10 -22 -18 -42 -19 -45 -3 -9 -23 -55 -53 -120 -16
-36 -40 -87 -52 -115 -49 -109 -224 -460 -232 -463 -4 -2 -8 -8 -8 -13 0 -24
-194 -344 -307 -504 -63 -90 -146 -187 -231 -271 l-64 -62 39 -43 c130 -145
354 -344 491 -437 l54 -36 29 33 c35 41 72 86 101 127 13 18 55 74 94 125 38
52 81 110 94 129 13 19 27 37 30 40 3 3 47 68 98 145 51 77 96 145 101 150 25
32 230 381 297 505 112 210 354 718 354 745 0 4 8 25 19 48 19 45 28 67 30 80
0 4 7 20 16 37 8 16 15 33 15 38 0 19 -296 140 -460 186 -52 15 -106 31 -120
36 -14 5 -38 11 -55 14 -48 8 -89 16 -102 21 -7 2 -20 -18 -32 -50z"/>
</g>
</svg>
